<?xml version="1.0" encoding="UTF-8" standalone="no"?>
<!-- Created with Inkscape (http://www.inkscape.org/) -->

<svg
   width="100"
   height="100"
   viewBox="0 0 211.66667 211.66667"
   version="1.1"
   id="svg4723"
   inkscape:version="1.2.2 (b0a8486541, 2022-12-01)"
   sodipodi:docname="logo-P.svg"
   inkscape:export-filename="logo_civp.jpg"
   inkscape:export-xdpi="96"
   inkscape:export-ydpi="96"
   xmlns:inkscape="http://www.inkscape.org/namespaces/inkscape"
   xmlns:sodipodi="http://sodipodi.sourceforge.net/DTD/sodipodi-0.dtd"
   xmlns="http://www.w3.org/2000/svg"
   xmlns:svg="http://www.w3.org/2000/svg">
  <sodipodi:namedview
     id="namedview4725"
     pagecolor="#ffffff"
     bordercolor="#666666"
     borderopacity="1.0"
     inkscape:showpageshadow="2"
     inkscape:pageopacity="0.0"
     inkscape:pagecheckerboard="0"
     inkscape:deskcolor="#d1d1d1"
     inkscape:document-units="mm"
     showgrid="false"
     inkscape:zoom="1.1893044"
     inkscape:cx="364.91919"
     inkscape:cy="499.45162"
     inkscape:window-width="1920"
     inkscape:window-height="1011"
     inkscape:window-x="0"
     inkscape:window-y="0"
     inkscape:window-maximized="1"
     inkscape:current-layer="layer1" />
  <defs
     id="defs4720" />
  <g
     inkscape:label="Calque 1"
     inkscape:groupmode="layer"
     id="layer1">
    <text
       xml:space="preserve"
       style="font-weight:bold;font-size:8.81945px;line-height:4.46429px;font-family:sans-serif;-inkscape-font-specification:'sans-serif Bold';text-align:center;writing-mode:lr-tb;text-anchor:middle;display:inline;fill:#000000;fill-opacity:1;stroke:#ffffff;stroke-width:0.899997;stroke-linecap:round;stroke-linejoin:bevel;stroke-dasharray:none;stroke-opacity:1"
       x="105.73429"
       y="155.6805"
       id="text1667"
       inkscape:label="conseil"><tspan
         sodipodi:role="line"
         id="tspan1665"
         style="font-size:8.81945px;fill:#000000;stroke:none;stroke-width:0.899997;stroke-opacity:0"
         x="0"
         y="0">CONSEIL INTERPROFESSIONNEL</tspan></text>
    <text
       xml:space="preserve"
       style="font-weight:bold;font-size:8.81944px;line-height:10px;font-family:sans-serif;-inkscape-font-specification:'sans-serif Bold';text-align:center;writing-mode:lr-tb;text-anchor:middle;display:inline;fill:#000000;fill-opacity:1;stroke:none;stroke-width:0.899997;stroke-linecap:round;stroke-linejoin:bevel;stroke-dasharray:none;stroke-opacity:0"
       x="105.75152"
       y="167.67729"
       id="text1925"
       inkscape:label="des vins"><tspan
         sodipodi:role="line"
         id="tspan1923"
         style="stroke-width:0.899997"
         x="0"
         y="0">DES VINS DE PROVENCE</tspan></text>
    <g
       id="g1610"
       transform="translate(-7.6672735,-52.601047)"
       inkscape:export-filename="logo_interpro-civp.png"
       inkscape:export-xdpi="9.6557808"
       inkscape:export-ydpi="9.6557808">
      <g
         id="g2006"
         transform="matrix(0.91084491,0,0,0.88160899,-197.74543,73.736811)"
         style="fill:#000000;fill-opacity:0;stroke:#000000;stroke-width:1.00434;stroke-dasharray:none;stroke-opacity:1"
         inkscape:label="CIV"
         inkscape:export-filename="civp.png"
         inkscape:export-xdpi="36.437054"
         inkscape:export-ydpi="36.437054">
        <path
           style="display:inline;fill:#000000;fill-opacity:1;fill-rule:evenodd;stroke:#000000;stroke-width:1.00434;stroke-linecap:butt;stroke-linejoin:miter;stroke-dasharray:none;stroke-opacity:1"
           d="m 307.68787,68.936416 -1.50287,8.120972 c -57.08491,-29.370442 -61.36478,49.717662 -16.54417,48.223832 5.11584,-0.17051 10.14822,-2.76224 15.90824,-7.7455 l 0.79035,9.53465 c -13.85248,5.9557 -21.56004,4.32976 -26.11248,3.96132 -19.29782,-2.85983 -31.76748,-13.66117 -31.60895,-36.261439 0.14538,-20.724829 16.42771,-30.285777 33.47237,-31.121652 10.35242,-0.08062 19.15543,1.40802 25.59751,5.287817 z"
           id="path293"
           sodipodi:nodetypes="ccscccscc"
           inkscape:label="C" />
        <path
           id="path1292"
           style="display:inline;fill:#000000;fill-opacity:1;stroke:#000000;stroke-width:1.00434;stroke-linecap:butt;stroke-linejoin:miter;stroke-dasharray:none;stroke-opacity:1"
           d="m 420.89844,61.068359 c -5.42432,0.349672 -10.23292,3.449724 -13.7873,7.451171 -9.72664,12.261623 -13.76416,25.431359 -21.4367,39.1471 l -10.15528,0.33755 c -3.97761,-7.90686 -7.11941,-16.207279 -10.7703,-24.269955 -2.70732,-6.19449 -5.24844,-12.483702 -8.12063,-18.577705 -2.09598,0.05529 -4.55862,0.08246 -6.70045,0.121946 4.65739,12.479323 10.67168,24.392095 16.2767,36.463084 l 2.65084,5.90406 c -6.43962,-0.38612 -9.21467,-1.77324 -12.23264,-2.74536 l -6.49157,1.89621 c 6.37139,2.22495 13.1558,3.16125 19.67494,3.24377 l 10.35487,20.99146 c 1.55905,1.48954 9.21927,-17.97907 11.29364,-22.15688 13.255,-3.15155 28.28822,-7.6871 37.27959,-20.30048 3.89166,-5.399114 6.82675,-12.706218 5.11163,-18.796755 -1.56215,-5.18732 -6.41254,-9.172599 -12.94734,-8.709216 z m 1.0801,1.871145 c 3.22161,-0.222978 5.63736,0.979707 7.1377,4.2542 2.14495,5.423961 -0.86806,11.212761 -3.49522,15.912493 -13.5808,21.301883 -33.2184,23.836703 -33.2184,23.836703 0,0 12.99308,-30.516602 23.18556,-41.446764 1.56468,-1.677928 3.92306,-2.674286 6.39036,-2.556632 z m -36.98157,46.767216 -4.59953,10.25275 -3.98223,-10.04893 z"
           sodipodi:nodetypes="cccccccccccccccccccccsccccc"
           inkscape:label="V" />
        <path
           style="display:inline;fill:#000000;fill-opacity:1;fill-rule:evenodd;stroke:#000000;stroke-width:1.00434;stroke-linecap:butt;stroke-linejoin:miter;stroke-dasharray:none;stroke-opacity:1"
           d="m 325.32522,65.458463 9.40925,-0.07552 0.0492,65.648747 h -9.82098 z"
           id="path1372"
           inkscape:label="I"
           sodipodi:nodetypes="ccccc" />
      </g>
      <rect
         style="fill:#000000;fill-opacity:0;stroke:none;stroke-width:0.989928;stroke-linecap:round;stroke-linejoin:bevel;stroke-dasharray:none;stroke-opacity:0"
         id="rect2031"
         width="170.98566"
         height="110.40457"
         x="20.133442"
         y="47.100849"
         inkscape:label="transp"
         transform="translate(7.6672735,56.305216)" />
    </g>
  </g>
</svg>
